<?xml version="1.0" encoding="UTF-8" standalone="no"?>
<!-- Created with Inkscape (http://www.inkscape.org/) -->

<svg
   width="323.91641mm"
   height="95.365952mm"
   viewBox="0 0 323.91642 95.365952"
   version="1.1"
   id="svg5"
   inkscape:version="1.1 (c68e22c387, 2021-05-23)"
   sodipodi:docname="running-an-executable.svg"
   inkscape:export-filename="D:\root\writings\books\2024 Learn programming with C++ in Windows\parts\chapter 01\work\code execution\compilation.png"
   inkscape:export-xdpi="66.709999"
   inkscape:export-ydpi="66.709999"
   xmlns:inkscape="http://www.inkscape.org/namespaces/inkscape"
   xmlns:sodipodi="http://sodipodi.sourceforge.net/DTD/sodipodi-0.dtd"
   xmlns:xlink="http://www.w3.org/1999/xlink"
   xmlns="http://www.w3.org/2000/svg"
   xmlns:svg="http://www.w3.org/2000/svg">
  <sodipodi:namedview
     id="namedview7"
     pagecolor="#ffffff"
     bordercolor="#666666"
     borderopacity="1.0"
     inkscape:pageshadow="2"
     inkscape:pageopacity="0.0"
     inkscape:pagecheckerboard="0"
     inkscape:document-units="mm"
     showgrid="false"
     inkscape:zoom="0.5499273"
     inkscape:cx="542.79902"
     inkscape:cy="139.1093"
     inkscape:window-width="2544"
     inkscape:window-height="1041"
     inkscape:window-x="1197"
     inkscape:window-y="0"
     inkscape:window-maximized="0"
     inkscape:current-layer="layer1"
     fit-margin-top="0"
     fit-margin-left="0"
     fit-margin-right="0"
     fit-margin-bottom="0" />
  <defs
     id="defs2">
    <filter
       inkscape:collect="always"
       style="color-interpolation-filters:sRGB"
       id="filter944"
       x="-0.027668532"
       y="-0.025275265"
       width="1.0553371"
       height="1.0505505">
      <feGaussianBlur
         inkscape:collect="always"
         stdDeviation="0.84913161"
         id="feGaussianBlur946" />
    </filter>
    <linearGradient
       id="b">
      <stop
         offset="0"
         stop-opacity=".32673267"
         id="stop26217" />
      <stop
         offset="1"
         stop-opacity="0"
         id="stop26219" />
    </linearGradient>
    <linearGradient
       id="a"
       x1="99.777298"
       x2="153.0005"
       y1="15.4238"
       y2="248.6311"
       gradientUnits="userSpaceOnUse">
      <stop
         offset="0"
         stop-color="#184375"
         id="stop26222" />
      <stop
         offset="1"
         stop-color="#c8bddc"
         id="stop26224" />
    </linearGradient>
    <linearGradient
       xlink:href="#a"
       id="d"
       x1="99.777298"
       x2="153.0005"
       y1="15.4238"
       y2="248.6311"
       gradientTransform="matrix(0.20069,0,0,0.20069,-0.585758,-1.050787)"
       gradientUnits="userSpaceOnUse" />
    <radialGradient
       xlink:href="#b"
       id="c"
       cx="14.287618"
       cy="68.872971"
       r="11.68987"
       fx="14.287618"
       fy="72.568001"
       gradientTransform="matrix(1.39926,0,0,0.51326,4.365074,4.839285)"
       gradientUnits="userSpaceOnUse" />
    <filter
       inkscape:collect="always"
       style="color-interpolation-filters:sRGB"
       id="filter16960"
       x="-0.074960459"
       y="-0.052756832"
       width="1.1499198"
       height="1.105511">
      <feGaussianBlur
         inkscape:collect="always"
         stdDeviation="1.219833"
         id="feGaussianBlur16962" />
    </filter>
  </defs>
  <g
     inkscape:label="Layer 1"
     inkscape:groupmode="layer"
     id="layer1"
     transform="translate(-41.478281,-45.72161)">
    <text
       xml:space="preserve"
       style="font-size:27.7823px;line-height:1.25;font-family:'Book Antiqua';-inkscape-font-specification:'Book Antiqua';fill:#4d4d4d;stroke-width:0.868198"
       x="123.97986"
       y="103.48734"
       id="text7439"><tspan
         sodipodi:role="line"
         id="tspan7437"
         style="fill:#4d4d4d;stroke-width:0.868198"
         x="123.97986"
         y="103.48734">⇨</tspan></text>
    <a
       id="a16823">
      <ellipse
         style="opacity:1;fill:#e9ddaf;fill-opacity:1;fill-rule:evenodd;stroke:#666666;stroke-width:0.505942;stroke-miterlimit:4;stroke-dasharray:none;stroke-opacity:0.995338;stop-color:#000000"
         id="path16680"
         cx="207.6241"
         cy="97.108589"
         rx="55.270298"
         ry="33.73999" />
    </a>
    <text
       xml:space="preserve"
       style="font-size:8.46667px;line-height:1.25;font-family:'Book Antiqua';-inkscape-font-specification:'Book Antiqua';text-align:center;text-anchor:middle;stroke-width:0.264583"
       x="208.72649"
       y="59.57943"
       id="text17764"><tspan
         sodipodi:role="line"
         id="tspan17762"
         style="text-align:center;text-anchor:middle;stroke-width:0.264583"
         x="208.72649"
         y="59.57943">Execution</tspan></text>
    <text
       xml:space="preserve"
       style="font-size:27.7823px;line-height:1.25;font-family:'Book Antiqua';-inkscape-font-specification:'Book Antiqua';fill:#4d4d4d;stroke-width:0.868198"
       x="269.7605"
       y="103.48734"
       id="text24905"><tspan
         sodipodi:role="line"
         id="tspan24903"
         style="fill:#4d4d4d;stroke-width:0.868198"
         x="269.7605"
         y="103.48734">⇨</tspan></text>
    <rect
       style="font-variation-settings:normal;opacity:1;fill:#ac9d93;fill-opacity:1;fill-rule:evenodd;stroke:none;stroke-width:0.224252;stroke-linecap:butt;stroke-linejoin:miter;stroke-miterlimit:4;stroke-dasharray:none;stroke-dashoffset:0;stroke-opacity:1;filter:url(#filter944);stop-color:#000000;stop-opacity:1"
       id="rect32526"
       width="73.65464"
       height="80.62886"
       x="43.919716"
       y="58.420792" />
    <rect
       style="font-variation-settings:normal;opacity:1;fill:#ff9955;fill-opacity:1;fill-rule:evenodd;stroke:#000000;stroke-width:0.264583;stroke-linecap:butt;stroke-linejoin:miter;stroke-miterlimit:4;stroke-dasharray:none;stroke-dashoffset:0;stroke-opacity:1;stop-color:#000000;stop-opacity:1"
       id="rect24907"
       width="73.654633"
       height="80.62886"
       x="41.610573"
       y="56.304123" />
    <g
       id="g26258"
       transform="matrix(1.3889022,0,0,1.3889022,44.746465,67.499422)">
      <path
         fill="url(#c)"
         fill-rule="evenodd"
         d="m 44.285715,38.714287 a 19.928572,9.837245 0 1 1 -39.8571433,0 19.928572,9.837245 0 1 1 39.8571433,0 z"
         color="#000000"
         overflow="visible"
         style="fill:url(#c);marker:none"
         transform="matrix(1.18638,0,0,1.18638,-4.539687,-7.794678)"
         id="path26231" />
      <path
         fill="url(#d)"
         stroke="#3f4561"
         stroke-linecap="round"
         stroke-linejoin="round"
         d="M 24.285801,43.196358 4.3751874,23.285744 24.285801,3.3751291 44.196415,23.285744 Z"
         id="path26233"
         style="fill:url(#d)" />
      <path
         fill="#ffffff"
         d="M 43.505062,23.285744 24.285801,4.0664819 5.0665401,23.285744 5.8476076,23.910676 24.45724,5.4825431 43.505256,23.285744 Z"
         opacity="0.72"
         id="path26235" />
      <path
         fill="#ffffff"
         d="m 8.9257729,27.145172 0.7384498,-1.024184 c 0.6367493,0.268492 1.3006183,0.485069 1.9861833,0.644885 l -0.0058,1.576858 c 0.427728,0.08834 0.86301,0.156136 1.304105,0.204371 l 0.481774,-1.501889 c 0.344041,0.02848 0.691764,0.04417 1.043361,0.04417 0.351209,0 0.699124,-0.0155 1.043166,-0.04417 l 0.481775,1.501889 c 0.441288,-0.04823 0.876376,-0.116036 1.304104,-0.204371 l -0.006,-1.577051 c 0.685758,-0.159623 1.349433,-0.3762 1.986182,-0.644692 l 0.92248,1.279502 c 0.402351,-0.182094 0.794241,-0.382591 1.174895,-0.600522 l -0.492817,-1.498016 c 0.59723,-0.36225 1.161723,-0.773319 1.687471,-1.227972 l 1.272141,0.931779 c 0.325638,-0.296581 0.637329,-0.608272 0.933716,-0.93391 l -0.931585,-1.271947 c 0.454847,-0.525748 0.865916,-1.090047 1.228166,-1.687665 l 1.498015,0.493011 C 26.79347,21.2244 26.994161,20.832316 27.175867,20.43016 l -1.279308,-0.922287 c 0.268492,-0.636749 0.485068,-1.300618 0.645079,-1.986376 l 1.576663,0.0058 c 0.08834,-0.427727 0.156137,-0.86301 0.204178,-1.304298 l -1.501695,-0.481774 c 0.02886,-0.343848 0.04417,-0.691764 0.04417,-1.043167 0,-0.351403 -0.01569,-0.699125 -0.04417,-1.043361 l 1.501695,-0.481774 C 28.274632,12.73184 28.206442,12.296751 28.118495,11.86883 l -1.577051,0.006 C 26.381627,11.189076 26.165051,10.525208 25.896753,9.8886539 L 27.176061,8.9663652 C 26.994354,8.5640139 26.79347,8.1721237 26.575926,7.7912754 L 25.077717,8.2842867 C 24.715466,7.6868623 24.304398,7.1225635 23.849744,6.5970095 L 24.78133,5.3248686 C 24.502958,5.0189892 24.210252,4.7268638 23.905922,4.4467488 L 5.0669275,23.285938 6.0738693,24.29288 6.3725811,24.074174 c 0.5257484,0.454653 1.0900465,0.865722 1.6874698,1.227972 l -0.2419526,0.735157 1.1080622,1.108062 z m 19.5232031,5.045944 c 0,-6.484682 4.233883,-11.979469 10.08724,-13.874023 l -2.226972,-2.227167 c -0.01685,0.007 -0.0339,0.01298 -0.05056,0.02015 L 36.077171,15.858244 34.665167,14.44624 c -0.463178,0.2189 -0.91667,0.45446 -1.359314,0.707648 l 0.694089,2.109193 c -0.841314,0.509669 -1.635748,1.08869 -2.375747,1.728732 l -1.79111,-1.311659 c -0.458721,0.41746 -0.897297,0.856036 -1.314564,1.314565 l 1.311465,1.790914 c -0.640041,0.740195 -1.218868,1.534628 -1.728731,2.375748 l -2.109387,-0.694089 c -0.306654,0.536403 -0.589093,1.088304 -0.844994,1.654732 l 1.801182,1.298293 c -0.377942,0.896329 -0.682852,1.831014 -0.907758,2.796501 l -2.219999,-0.0085 c -0.124172,0.602266 -0.219869,1.215188 -0.287476,1.836051 l 2.114423,0.678398 c -0.04029,0.484293 -0.06199,0.97401 -0.06199,1.46857 0,0.494753 0.0217,0.98447 0.06199,1.468763 l -2.114423,0.677816 c 0.06761,0.621251 0.163304,1.233979 0.28767,1.836245 l 2.219805,-0.0083 c 0.224906,0.965487 0.529816,1.900172 0.907758,2.796502 l -1.801182,1.298486 c 0.142382,0.31479 0.293869,0.624931 0.452136,0.930423 l 3.804023,-3.803636 c -0.61602,-1.614245 -0.95425,-3.365836 -0.95425,-5.196269 z"
         opacity="0.5"
         id="path26237" />
      <path
         d="M 5.2050478,23.424252 24.285801,42.505005 43.505062,23.285744 42.789963,22.603525 24.310314,41.041677 5.2050478,23.424059 Z"
         opacity="0.35"
         id="path26239" />
    </g>
    <text
       xml:space="preserve"
       style="font-size:8.46667px;line-height:1.25;font-family:'Book Antiqua';-inkscape-font-specification:'Book Antiqua';text-align:center;text-anchor:middle;stroke-width:0.264583"
       x="79.729347"
       y="51.881443"
       id="text26262"><tspan
         sodipodi:role="line"
         id="tspan26260"
         style="text-align:center;text-anchor:middle;stroke-width:0.264583"
         x="79.729347"
         y="51.881443">Executable</tspan></text>
    <text
       xml:space="preserve"
       style="font-size:8.46667px;line-height:1.25;font-family:'Book Antiqua';-inkscape-font-specification:'Book Antiqua';text-align:center;text-anchor:middle;stroke-width:0.264583"
       x="207.76424"
       y="80.411896"
       id="text41473"><tspan
         sodipodi:role="line"
         style="font-style:italic;text-align:center;text-anchor:middle;stroke-width:0.264583"
         x="207.76424"
         y="80.411896"
         id="tspan41873">The physical computer</tspan><tspan
         sodipodi:role="line"
         style="font-style:italic;text-align:center;text-anchor:middle;stroke-width:0.264583"
         x="207.76424"
         y="91.005447"
         id="tspan6266">or a simulated computer</tspan><tspan
         sodipodi:role="line"
         style="font-style:italic;text-align:center;text-anchor:middle;stroke-width:0.264583"
         x="207.76424"
         y="101.59901"
         id="tspan6268">is directed by</tspan><tspan
         sodipodi:role="line"
         style="font-style:italic;text-align:center;text-anchor:middle;stroke-width:0.264583"
         x="207.76424"
         y="112.19256"
         id="tspan41875">the numerical instructions</tspan><tspan
         sodipodi:role="line"
         style="font-style:italic;text-align:center;text-anchor:middle;stroke-width:0.264583"
         x="207.76424"
         y="122.78611"
         id="tspan6270">in the executable.</tspan></text>
    <path
       id="path16922"
       style="mix-blend-mode:normal;fill:#cccccc;stroke:#cccccc;stroke-width:1.17525;stroke-linejoin:round;filter:url(#filter16960)"
       d="m 314.98557,97.176349 14.2464,-33.241322 h 32.64757 l -23.5953,23.891943 h 19.44008 l -38.13835,42.73875 9.79408,-33.537926 z" />
    <path
       id="path2996"
       style="fill:#ffd500;stroke:#ffbf00;stroke-width:1.17525;stroke-linejoin:round"
       d="m 313.39806,95.059681 14.2464,-33.241322 h 32.64757 l -23.5953,23.891943 h 19.44008 l -38.13835,42.738738 9.79408,-33.537914 z" />
    <text
       xml:space="preserve"
       style="font-size:8.46667px;line-height:1.25;font-family:'Book Antiqua';-inkscape-font-specification:'Book Antiqua';text-align:center;text-anchor:middle;stroke-width:0.264583"
       x="337.36169"
       y="58.760616"
       id="text1007"><tspan
         sodipodi:role="line"
         id="tspan1005"
         style="text-align:center;text-anchor:middle;stroke-width:0.264583"
         x="337.36169"
         y="58.760616">Effect!</tspan></text>
  </g>
</svg>
